<svg id='Google_Forms_48' width='48' height='48' viewBox='0 0 48 48' xmlns='http://www.w3.org/2000/svg' xmlns:xlink='http://www.w3.org/1999/xlink'><rect width='48' height='48' stroke='none' fill='#000000' opacity='0'/>


<g transform="matrix(1.69 0 0 1.69 24 24)" >
<path style="stroke: none; stroke-width: 1; stroke-dasharray: none; stroke-linecap: butt; stroke-dashoffset: 0; stroke-linejoin: miter; stroke-miterlimit: 4; fill: rgb(125, 132, 216); fill-rule: nonzero; opacity: 1;" transform=" translate(-15, -15)" d="M 24.707 7.793 L 19.207 2.293 C 19.019 2.105 18.765 2 18.5 2 L 7 2 C 5.895 2 5 2.895 5 4 L 5 26 C 5 27.105 5.895 28 7 28 L 23 28 C 24.105 28 25 27.105 25 26 L 25 8.5 C 25 8.235 24.895 7.981 24.707 7.793 z M 10 15 C 9.448 15 9 14.552 9 14 C 9 13.448 9.448 13 10 13 C 10.552 13 11 13.448 11 14 C 11 14.552 10.552 15 10 15 z M 10 19 C 9.448 19 9 18.552 9 18 C 9 17.448 9.448 17 10 17 C 10.552 17 11 17.448 11 18 C 11 18.552 10.552 19 10 19 z M 10 23 C 9.448 23 9 22.552 9 22 C 9 21.448 9.448 21 10 21 C 10.552 21 11 21.448 11 22 C 11 22.552 10.552 23 10 23 z M 20 23 L 14 23 C 13.448 23 13 22.552 13 22 C 13 21.448 13.448 21 14 21 L 20 21 C 20.552 21 21 21.448 21 22 C 21 22.552 20.552 23 20 23 z M 20 19 L 14 19 C 13.448 19 13 18.552 13 18 C 13 17.448 13.448 17 14 17 L 20 17 C 20.552 17 21 17.448 21 18 C 21 18.552 20.552 19 20 19 z M 20 15 L 14 15 C 13.448 15 13 14.552 13 14 C 13 13.448 13.448 13 14 13 L 20 13 C 20.552 13 21 13.448 21 14 C 21 14.552 20.552 15 20 15 z M 19 9 C 18.448 9 18 8.552 18 8 L 18 3.904 L 23.096 9 L 19 9 z" stroke-linecap="round" />
</g>
</svg>